<svg width="697" height="128" viewBox="0 0 697 128" fill="none" xmlns="http://www.w3.org/2000/svg">
<path d="M315.058 38C315.058 9.5 350.779 0 350.779 0C350.779 0 332.5 24.5 350.779 43C368.707 61.1455 388.66 94.2059 379.058 103.382C369.455 112.559 338.557 127.5 338.557 127.5C338.557 127.5 357.885 121.162 350.779 103.382C343.673 85.6029 322.74 64.3824 315.058 38Z" fill="black"/>
<path d="M9.4143 77.1471C-14.0157 77.1471 16.5 27 16.5 27C16.5 27 19.8257 44.5 32.501 44.5H269.833C285.581 44.5 269.833 94 269.833 94C269.833 94 269.833 74.8529 248.324 77.1471C226.814 79.4412 32.8443 77.1471 9.4143 77.1471Z" fill="black"/>
<path d="M428.848 77.1471C405.418 77.1471 435.934 27 435.934 27C435.934 27 439.259 44.5 451.935 44.5H689.267C705.015 44.5 689.267 94 689.267 94C689.267 94 689.267 74.8529 667.757 77.1471C646.248 79.4412 452.278 77.1471 428.848 77.1471Z" fill="black"/>
</svg>
