<svg width="19" height="68" viewBox="0 0 19 68" fill="none" xmlns="http://www.w3.org/2000/svg">
<g clip-path="url(#clip0_40_26)">
<path d="M6.00088 0.504396C5.75633 0.765934 5.21079 1.34506 4.77811 1.77473C3.55534 3.04505 2.82168 4.14725 2.82168 4.70769C2.82168 5.1 3.12267 5.56703 3.93158 6.42637C5.32366 7.9022 5.53059 8.27582 5.36128 9.0978C5.2296 9.82637 4.83455 10.0692 4.38306 9.6956C4.1197 9.47143 4.10088 9.49011 4.21376 9.82637C4.32663 10.1813 4.25138 10.2374 3.16029 10.3494C1.88108 10.4802 1.29791 10.7604 0.808798 11.5264C0.52662 11.956 0.470184 12.4231 0.507808 14.3846C0.52662 15.6736 0.639491 16.944 0.733551 17.1868C0.884046 17.5791 0.921669 17.5044 0.921669 16.6637C0.940481 15.4681 1.31672 14.6835 2.0692 14.2912C2.63356 13.9923 4.32663 13.8989 4.32663 14.1604C4.32663 14.2352 3.89395 14.7209 3.36722 15.2253C2.23851 16.3088 1.31672 17.6538 1.31672 18.2143C1.31672 18.4385 1.7682 19.0549 2.37019 19.6714L3.44247 20.7363L2.67118 21.5582C1.65533 22.6604 1.31672 23.3516 1.31672 24.3791C1.31672 25.5934 1.86226 26.4901 3.36722 27.8352L4.70286 29.0121L3.25435 30.5253C0.620679 33.3088 0.564244 33.6264 2.44544 35.5879C3.95039 37.1758 3.9692 36.8582 2.37019 39.1374C1.01573 41.0615 1.01573 41.3604 2.31376 42.7429C3.74346 44.256 3.74346 44.3308 2.65237 45.489L1.71177 46.4791L1.82464 53.5967L1.93752 60.7143L1.26028 61.3868C0.884046 61.7604 0.470184 62.3769 0.338501 62.7505C-0.207043 64.3011 0.282066 67.3648 1.1286 67.8132C1.99395 68.2615 3.38603 67.6264 3.38603 66.767C3.38603 66.5242 3.29197 66.5802 2.99098 66.9538C2.70881 67.3088 2.42663 67.4396 1.95633 67.4396C1.58009 67.4396 1.26028 67.3275 1.20385 67.178C1.03454 66.7297 1.50484 65.4033 2.05039 64.7868C2.52069 64.2637 2.67118 64.2077 4.4395 64.0396C5.64346 63.9275 6.82861 63.9462 7.80683 64.0582C13.4316 64.7681 15.2563 64.7868 16.7613 64.133C17.2504 63.9275 17.8524 63.4604 18.1157 63.1242C18.5484 62.5264 18.5672 62.4143 18.4167 61.3121C18.3227 60.6769 18.2286 59.6121 18.191 58.9582C18.1534 58.3044 18.0217 57.6319 17.89 57.4637C17.6078 57.1275 16.8365 57.0527 16.6484 57.3516C16.592 57.4637 16.7425 57.5385 16.987 57.5385C17.5138 57.5385 17.6831 57.8374 17.6831 58.7527C17.6831 59.4813 16.7989 60.3593 15.7078 60.7143C14.7484 61.0319 12.5474 61.0506 10.1583 60.7517C9.06722 60.6209 7.4494 60.4714 6.56524 60.3967L4.94742 60.2846L4.81574 52.9802C4.72168 48.9637 4.66524 45.433 4.68405 45.1527C4.68405 44.8165 4.92861 44.3495 5.34247 43.9011C5.69989 43.4901 6.189 42.8176 6.39593 42.3879C6.75336 41.7154 6.77217 41.5473 6.56524 41.0242C6.41475 40.7066 5.81277 39.922 5.2296 39.2681C3.9692 37.9418 3.95039 38.1099 5.45534 36.1484C6.47118 34.822 6.60286 34.2055 6.13257 33.2901C5.98207 33.0099 5.68108 32.6176 5.45534 32.4121C4.55237 31.6088 4.25138 30.3198 4.77811 29.6099C5.04148 29.2549 5.06029 29.2549 5.43653 29.5912C5.88801 29.9835 5.94445 30.4506 5.60583 30.7868C5.43653 30.9549 5.45534 31.011 5.69989 31.011C5.8692 31.011 6.07613 30.8615 6.189 30.6934C6.3395 30.4132 6.60286 30.544 8.22069 31.7582C11.9831 34.5978 13.1306 35.644 14.1276 37.1571C14.8801 38.3154 14.8613 39.156 14.0524 40.2022C13.5068 40.9121 13.3375 41.0055 12.7355 40.9868C12.1712 40.9681 12.0771 41.0055 12.2464 41.211C13.0553 42.1824 15.7266 40.4451 17.0246 38.0912C17.4573 37.2879 17.5138 36.989 17.4197 36.2791C17.2504 34.9901 15.689 32.8978 14.0147 31.6835C13.6573 31.422 13.6761 31.3846 14.5979 30.4132C15.1246 29.8714 15.689 29.2176 15.8771 28.956C16.4979 28.022 16.1781 26.9385 14.8237 25.4813L14.0712 24.6593L15.3128 23.333C16.893 21.6703 17.3068 21.0165 17.3068 20.1198C17.3068 19.2231 17.0999 18.8308 15.9524 17.5978C15.0306 16.5703 14.786 16.0473 14.8989 15.3187C15.0306 14.3659 16.291 14.3659 16.2534 15.3C16.2345 15.6736 16.2722 15.6923 16.5355 15.4121C16.7801 15.1879 16.7801 15.0571 16.6108 14.7582C16.4039 14.4593 16.4415 14.3846 16.7989 14.2725C17.0246 14.2165 17.4385 13.9363 17.7395 13.6747C18.2098 13.2451 18.2474 13.0769 18.2286 11.8813C18.2286 9.43406 17.9841 8.08901 17.4949 7.56593C16.9682 7.00549 15.99 6.8 15.1811 7.06154C14.6167 7.22967 14.6355 7.24835 15.6326 7.26703C16.893 7.28571 17.4761 7.77143 17.6266 8.91099C17.8524 10.5736 16.2157 11.1527 12.4722 10.7418C11.2494 10.611 9.16128 10.4429 7.84445 10.3681L5.41772 10.2187L6.35831 9.26593C7.52465 8.07033 8.089 7.04285 8.089 6.07143C8.089 5.17472 7.69395 4.53956 6.48999 3.4934C5.64346 2.74615 5.60584 2.67143 5.73752 1.9989C5.98207 0.728572 6.88504 0 7.48702 0.597802C7.61871 0.728572 7.71277 0.747253 7.71277 0.635165C7.71277 0.317583 7.28009 0 6.84742 0C6.62168 0 6.24544 0.224176 6.00088 0.504396ZM6.47118 14.422C6.64049 14.6462 6.77217 15.0571 6.79098 15.3187V15.7857L6.9791 15.356C7.07316 15.0758 7.07316 14.7956 6.96029 14.5714C6.84742 14.3846 6.77217 14.1791 6.77217 14.1231C6.77217 13.8615 9.46227 14.011 13.5068 14.4967L14.3157 14.5901L13.5256 15.4681C12.1147 17.0374 11.8702 18.2516 12.7167 19.4659C12.9989 19.8582 13.2999 20.1758 13.3751 20.1758C13.4692 20.1758 13.789 20.5308 14.1088 20.9604C14.7108 21.7637 14.8237 22.567 14.485 23.4451C14.09 24.4725 13.1682 24.1176 13.1682 22.922C13.1682 22.6231 13.093 22.4363 12.9801 22.511C12.886 22.567 12.792 22.7912 12.792 22.9967C12.792 23.2769 12.1712 22.8659 10.1207 21.1846C8.63455 19.989 6.88504 18.6066 6.20782 18.1209C5.53059 17.6165 4.74049 16.9066 4.4395 16.533C3.87514 15.8044 3.89395 15.5615 4.62762 14.422C5.00386 13.8429 6.07613 13.8429 6.47118 14.422ZM4.62762 21.4462C4.81574 21.633 5.8692 22.4736 6.96029 23.3516C9.51871 25.3692 12.7355 28.489 13.187 29.367C13.5444 30.0769 13.6385 30.656 13.4316 30.8802C13.2246 31.0857 9.18009 28.0407 6.41475 25.6121C4.45831 23.8934 3.95039 23.1462 3.95039 22.0066C3.95039 21.0352 4.06326 20.9418 4.62762 21.4462Z" fill="white"/>
<path d="M9.91375 37.7363C9.63158 38.0539 8.99197 39.1747 8.46524 40.2396C6.94148 43.3407 7.07316 43.8637 10.7791 49.4681C13.2811 53.2231 14.1088 54.7176 14.692 56.3989C15.1623 57.7626 15.1435 58.4352 14.5791 59.2758C13.8642 60.3033 13.2058 60.1538 12.7732 58.9022C12.6227 58.4352 12.6039 58.4538 12.6979 59.089C12.792 60.0044 13.0742 60.3407 13.7326 60.3407C14.391 60.3407 14.6167 60.0604 15.8771 57.6692C17.0999 55.3341 17.1563 54.811 16.4603 52.9242C15.7831 51.1681 15.0306 49.8604 12.6227 46.2549C10.1395 42.556 9.61276 41.5473 9.46227 40.3703C9.36821 39.6231 9.44346 39.3615 9.87613 38.6517C10.3841 37.867 10.6662 37.5495 10.9484 37.5495C11.2494 37.5495 11.6633 38.1659 11.6821 38.633C11.6821 39.1187 11.7009 39.1187 11.889 38.7451C12.19 38.0912 11.7197 37.2879 10.986 37.2132C10.5157 37.1758 10.29 37.2692 9.91375 37.7363Z" fill="white"/>
<path d="M16.9308 39.5484C16.7238 39.8473 16.0842 40.6506 15.5199 41.3604C14.5229 42.6495 14.2031 43.4154 14.4288 44.0319C14.4852 44.2187 14.9179 44.8725 15.3882 45.489C16.5734 47.0769 16.6862 47.3758 16.2724 47.8242C15.8961 48.2539 15.3318 48.3099 15.1625 47.955C15.106 47.8429 15.0684 47.8989 15.106 48.1044C15.1436 48.4967 15.8961 48.7022 16.2912 48.4407C16.8555 48.0297 19.0001 45.1154 19.0001 44.7418C19.0001 44.5176 18.7367 43.9945 18.4357 43.6022C16.6674 41.3231 16.4605 40.7626 17.1377 39.9033C17.6268 39.2681 18.2852 39.3055 18.4357 39.978C18.5298 40.389 18.5674 40.4077 18.6803 40.1088C19.0754 39.0813 17.6456 38.633 16.9308 39.5484Z" fill="white"/>
</g>
<defs>
<clipPath id="clip0_40_26">
<rect width="19" height="68" fill="white"/>
</clipPath>
</defs>
</svg>
