<svg width="81" height="83" viewBox="0 0 81 83" fill="none" xmlns="http://www.w3.org/2000/svg">
<path fill-rule="evenodd" clip-rule="evenodd" d="M25.1944 3.68662C29.1532 3.49987 30.4155 3.45837 40.5 3.45837C50.5845 3.45837 51.8468 3.50333 55.8022 3.68662C59.7578 3.86992 62.4577 4.51662 64.8202 5.45383C67.2941 6.41179 69.5385 7.90925 71.3947 9.84591C73.2847 11.7445 74.7428 14.0409 75.6743 16.5793C76.5923 19.0001 77.22 21.7668 77.4023 25.813C77.5845 29.8766 77.625 31.17 77.625 41.5C77.625 51.8335 77.5811 53.127 77.4023 57.1836C77.2234 61.2298 76.5923 63.9965 75.6743 66.4173C74.7427 68.9561 73.2823 71.2562 71.3947 73.1576C69.5385 75.0943 67.2941 76.5883 64.8202 77.5428C62.4577 78.4835 59.7577 79.1267 55.809 79.3135C51.8467 79.5002 50.5845 79.5417 40.5 79.5417C30.4155 79.5417 29.1532 79.4967 25.1944 79.3135C21.2456 79.1302 18.5456 78.4835 16.1831 77.5428C13.7056 76.5882 11.4609 75.0917 9.60525 73.1576C7.71653 71.2579 6.25494 68.9588 5.32238 66.4208C4.40775 64 3.78 61.2333 3.59775 57.187C3.4155 53.1235 3.375 51.8301 3.375 41.5C3.375 31.1665 3.41887 29.8731 3.59775 25.82C3.77662 21.7668 4.40775 19.0001 5.32238 16.5793C6.25631 14.0412 7.71903 11.7422 9.60862 9.84246C11.4616 7.90752 13.7041 6.40987 16.1798 5.45383C18.5423 4.51662 21.2423 3.87337 25.191 3.68662H25.1944ZM55.5019 10.5341C51.5869 10.3508 50.4124 10.3128 40.5 10.3128C30.5876 10.3128 29.4131 10.3508 25.4981 10.5341C21.8767 10.7036 19.9125 11.3226 18.603 11.8448C16.8716 12.5365 15.633 13.3561 14.3336 14.6876C13.1019 15.9155 12.154 17.4103 11.5594 19.0624C11.0497 20.4042 10.4456 22.417 10.2803 26.1277C10.1014 30.1394 10.0643 31.3429 10.0643 41.5C10.0643 51.6572 10.1014 52.8607 10.2803 56.8723C10.4456 60.5831 11.0497 62.5959 11.5594 63.9377C12.1534 65.5873 13.1018 67.0848 14.3336 68.3125C15.5318 69.5748 16.9931 70.5466 18.603 71.1552C19.9125 71.6775 21.8767 72.2965 25.4981 72.466C29.4131 72.6492 30.5842 72.6873 40.5 72.6873C50.4157 72.6873 51.5869 72.6492 55.5019 72.466C59.1232 72.2965 61.0875 71.6775 62.397 71.1552C64.1284 70.4636 65.367 69.644 66.6664 68.3125C67.8983 67.0848 68.8466 65.5873 69.4406 63.9377C69.9503 62.5959 70.5544 60.5831 70.7197 56.8723C70.8986 52.8607 70.9357 51.6572 70.9357 41.5C70.9357 31.3429 70.8986 30.1394 70.7197 26.1277C70.5544 22.417 69.9503 20.4042 69.4406 19.0624C68.7656 17.2882 67.9658 16.019 66.6664 14.6876C65.468 13.4255 64.0093 12.4542 62.397 11.8448C61.0875 11.3226 59.1232 10.7036 55.5019 10.5341ZM35.7581 53.2272C38.4063 54.3568 41.3552 54.5093 44.1009 53.6586C46.8466 52.8078 49.2189 51.0067 50.8127 48.5628C52.4064 46.1189 53.1227 43.1838 52.8392 40.2589C52.5556 37.3339 51.2899 34.6006 49.2581 32.5257C47.9629 31.1993 46.3968 30.1837 44.6726 29.552C42.9484 28.9203 41.1089 28.6882 39.2867 28.8723C37.4644 29.0565 35.7046 29.6524 34.1341 30.6171C32.5635 31.5818 31.2213 32.8914 30.2039 34.4514C29.1865 36.0115 28.5194 37.7833 28.2505 39.6393C27.9816 41.4953 28.1176 43.3893 28.6488 45.1849C29.18 46.9806 30.0931 48.6332 31.3224 50.0239C32.5517 51.4145 34.0667 52.5085 35.7581 53.2272ZM27.0068 27.6736C28.7787 25.8579 30.8823 24.4176 33.1975 23.435C35.5127 22.4523 37.9941 21.9465 40.5 21.9465C43.0059 21.9465 45.4873 22.4523 47.8025 23.435C50.1177 24.4176 52.2213 25.8579 53.9933 27.6736C55.7652 29.4893 57.1708 31.6449 58.1298 34.0172C59.0888 36.3896 59.5823 38.9322 59.5823 41.5C59.5823 44.0678 59.0888 46.6105 58.1298 48.9828C57.1708 51.3552 55.7652 53.5107 53.9933 55.3265C50.4146 58.9934 45.561 61.0535 40.5 61.0535C35.439 61.0535 30.5854 58.9934 27.0068 55.3265C23.4281 51.6595 21.4177 46.6859 21.4177 41.5C21.4177 36.3141 23.4281 31.3406 27.0068 27.6736ZM63.8145 24.8585C64.2536 24.4341 64.6051 23.9237 64.8483 23.3575C65.0914 22.7914 65.2212 22.181 65.23 21.5625C65.2388 20.944 65.1264 20.33 64.8995 19.7568C64.6726 19.1837 64.3357 18.663 63.9089 18.2256C63.482 17.7882 62.9739 17.443 62.4145 17.2105C61.8552 16.978 61.2559 16.8628 60.6524 16.8718C60.0488 16.8808 59.4531 17.0138 58.9006 17.263C58.3481 17.5121 57.85 17.8723 57.4357 18.3223C56.6302 19.1973 56.1891 20.3597 56.2062 21.5625C56.2234 22.7653 56.6973 23.914 57.5274 24.7646C58.3575 25.6152 59.4785 26.1009 60.6524 26.1184C61.8262 26.1359 62.9605 25.684 63.8145 24.8585Z" fill="white"/>
</svg>
